# xmcd
#
# Track frame offsets: 
#        150
#        18554
#        40878
#        62112
#        79944
#        98341
#        119140
#        142287
#        165303
#        186392
#        202061
#        219718
#
# Disc length: 3177 seconds
#
# Revision: 0
# Processed by: cddbd v1.5.2PL0 Copyright (c) Steve Scherf et al.
# Submitted via: ExactAudioCopy v1.0b4
#
DISCID=b60c670c
DTITLE=Teresa James and The Rhythm Tramps - Here In Babylon
DYEAR=2018
DGENRE=Blues
TTITLE0=I Know I Ain't Been So Pertect
TTITLE1=Here In Babylon
TTITLE2=Give Me A Holler
TTITLE3=Hrad Up, Heart Open
TTITLE4=I Keep Drifting Away
TTITLE5=Ground Zero
TTITLE6=Hold On
TTITLE7=You Had To Bring That Up
TTITLE8=The Day The Blues Came To Call
TTITLE9=I Gotta Roll
TTITLE10=21st Century Man
TTITLE11=Find Me A Bar
EXTD=
EXTT0=
EXTT1=
EXTT2=
EXTT3=
EXTT4=
EXTT5=
EXTT6=
EXTT7=
EXTT8=
EXTT9=
EXTT10=
EXTT11=
PLAYORDER=
